<svg xmlns="http://www.w3.org/2000/svg" xmlns:xlink="http://www.w3.org/1999/xlink" width="900" zoomAndPan="magnify" viewBox="0 0 675 232.499993" height="310" preserveAspectRatio="xMidYMid meet" version="1.0"><defs><g/><clipPath id="a4f6ad4626"><path d="M 0.722656 0.386719 L 674.273438 0.386719 L 674.273438 231.613281 L 0.722656 231.613281 Z M 0.722656 0.386719 " clip-rule="nonzero"/></clipPath><clipPath id="d75908abd3"><path d="M 23.175781 0.386719 L 651.824219 0.386719 C 657.777344 0.386719 663.488281 2.75 667.699219 6.960938 C 671.910156 11.171875 674.277344 16.882812 674.277344 22.839844 L 674.277344 209.164062 C 674.277344 215.117188 671.910156 220.828125 667.699219 225.039062 C 663.488281 229.25 657.777344 231.613281 651.824219 231.613281 L 23.175781 231.613281 C 17.222656 231.613281 11.511719 229.25 7.300781 225.039062 C 3.089844 220.828125 0.722656 215.117188 0.722656 209.164062 L 0.722656 22.839844 C 0.722656 16.882812 3.089844 11.171875 7.300781 6.960938 C 11.511719 2.75 17.222656 0.386719 23.175781 0.386719 Z M 23.175781 0.386719 " clip-rule="nonzero"/></clipPath><clipPath id="98a72fbd60"><path d="M 58.058594 42.519531 L 126.367188 42.519531 L 126.367188 170.601562 L 58.058594 170.601562 Z M 58.058594 42.519531 " clip-rule="nonzero"/></clipPath><clipPath id="9b0499ffdc"><path d="M 67.039062 42.519531 L 117.386719 42.519531 C 119.765625 42.519531 122.050781 43.46875 123.734375 45.152344 C 125.421875 46.835938 126.367188 49.121094 126.367188 51.5 L 126.367188 161.464844 C 126.367188 163.847656 125.421875 166.132812 123.734375 167.816406 C 122.050781 169.5 119.765625 170.445312 117.386719 170.445312 L 67.039062 170.445312 C 64.65625 170.445312 62.371094 169.5 60.6875 167.816406 C 59.003906 166.132812 58.058594 163.847656 58.058594 161.464844 L 58.058594 51.5 C 58.058594 49.121094 59.003906 46.835938 60.6875 45.152344 C 62.371094 43.46875 64.65625 42.519531 67.039062 42.519531 Z M 67.039062 42.519531 " clip-rule="nonzero"/></clipPath><clipPath id="7b0db4138d"><path d="M 63.023438 63.636719 L 121.398438 63.636719 L 121.398438 149.332031 L 63.023438 149.332031 Z M 63.023438 63.636719 " clip-rule="nonzero"/></clipPath><clipPath id="2c0068800f"><path d="M 86 152.460938 L 98.421875 152.460938 L 98.421875 164.878906 L 86 164.878906 Z M 86 152.460938 " clip-rule="nonzero"/></clipPath><clipPath id="44f441dc46"><path d="M 92.210938 152.460938 C 88.78125 152.460938 86 155.242188 86 158.671875 C 86 162.101562 88.78125 164.878906 92.210938 164.878906 C 95.640625 164.878906 98.421875 162.101562 98.421875 158.671875 C 98.421875 155.242188 95.640625 152.460938 92.210938 152.460938 Z M 92.210938 152.460938 " clip-rule="nonzero"/></clipPath></defs><g clip-path="url(#a4f6ad4626)"><g clip-path="url(#d75908abd3)"><path fill="#494949" d="M 0.722656 0.386719 L 674.539062 0.386719 L 674.539062 231.613281 L 0.722656 231.613281 Z M 0.722656 0.386719 " fill-opacity="1" fill-rule="nonzero"/></g></g><path stroke-linecap="butt" transform="matrix(0.748391, 0, 0, 0.748391, 84.357664, 66.183286)" fill="none" stroke-linejoin="miter" d="M 0.00228588 1.999493 L 18.145388 1.999493 " stroke="#494949" stroke-width="4" stroke-opacity="1" stroke-miterlimit="4"/><g clip-path="url(#98a72fbd60)"><g clip-path="url(#9b0499ffdc)"><path fill="#ffffff" d="M 58.058594 42.519531 L 126.367188 42.519531 L 126.367188 170.335938 L 58.058594 170.335938 Z M 58.058594 42.519531 " fill-opacity="1" fill-rule="nonzero"/></g></g><g clip-path="url(#7b0db4138d)"><path fill="#494949" d="M 63.023438 63.636719 L 121.398438 63.636719 L 121.398438 149.371094 L 63.023438 149.371094 Z M 63.023438 63.636719 " fill-opacity="1" fill-rule="nonzero"/></g><g clip-path="url(#2c0068800f)"><g clip-path="url(#44f441dc46)"><path fill="#494949" d="M 86 152.460938 L 98.421875 152.460938 L 98.421875 164.878906 L 86 164.878906 Z M 86 152.460938 " fill-opacity="1" fill-rule="nonzero"/></g></g><g fill="#ffffff" fill-opacity="1"><g transform="translate(181.805161, 81.668597)"><g><path d="M 1.5625 0 L 15.015625 -36.484375 L 19.65625 -36.484375 L 33.046875 0 L 28.40625 0 L 25.078125 -9.375 L 9.53125 -9.375 L 6.15625 0 Z M 10.84375 -12.921875 L 23.765625 -12.921875 L 17.3125 -30.96875 Z M 10.84375 -12.921875 "/></g></g></g><g fill="#ffffff" fill-opacity="1"><g transform="translate(220.633049, 81.668597)"><g><path d="M 11.046875 0 L 1.25 -25.859375 L 5.84375 -25.859375 L 13.609375 -4.21875 L 21.421875 -25.859375 L 25.90625 -25.859375 L 16.109375 0 Z M 11.046875 0 "/></g></g></g><g fill="#ffffff" fill-opacity="1"><g transform="translate(252.008297, 81.668597)"><g><path d="M 12.203125 0.625 C 10.046875 0.625 8.253906 0.257812 6.828125 -0.46875 C 5.398438 -1.195312 4.335938 -2.171875 3.640625 -3.390625 C 2.953125 -4.609375 2.609375 -5.925781 2.609375 -7.34375 C 2.609375 -9.988281 3.613281 -12.019531 5.625 -13.4375 C 7.644531 -14.863281 10.390625 -15.578125 13.859375 -15.578125 L 20.84375 -15.578125 L 20.84375 -15.890625 C 20.84375 -18.148438 20.253906 -19.863281 19.078125 -21.03125 C 17.898438 -22.195312 16.316406 -22.78125 14.328125 -22.78125 C 12.628906 -22.78125 11.160156 -22.351562 9.921875 -21.5 C 8.691406 -20.644531 7.921875 -19.40625 7.609375 -17.78125 L 3.125 -17.78125 C 3.300781 -19.65625 3.9375 -21.234375 5.03125 -22.515625 C 6.125 -23.804688 7.488281 -24.789062 9.125 -25.46875 C 10.757812 -26.144531 12.492188 -26.484375 14.328125 -26.484375 C 17.941406 -26.484375 20.660156 -25.515625 22.484375 -23.578125 C 24.316406 -21.648438 25.234375 -19.085938 25.234375 -15.890625 L 25.234375 0 L 21.3125 0 L 21.0625 -4.640625 C 20.332031 -3.179688 19.257812 -1.9375 17.84375 -0.90625 C 16.4375 0.113281 14.554688 0.625 12.203125 0.625 Z M 12.875 -3.078125 C 14.539062 -3.078125 15.972656 -3.507812 17.171875 -4.375 C 18.367188 -5.25 19.28125 -6.378906 19.90625 -7.765625 C 20.53125 -9.160156 20.84375 -10.617188 20.84375 -12.140625 L 20.84375 -12.203125 L 14.234375 -12.203125 C 11.660156 -12.203125 9.84375 -11.753906 8.78125 -10.859375 C 7.71875 -9.972656 7.1875 -8.875 7.1875 -7.5625 C 7.1875 -6.207031 7.679688 -5.117188 8.671875 -4.296875 C 9.671875 -3.484375 11.070312 -3.078125 12.875 -3.078125 Z M 12.875 -3.078125 "/></g></g></g><g fill="#ffffff" fill-opacity="1"><g transform="translate(284.425867, 81.668597)"><g><path d="M 3.59375 0 L 3.59375 -37.53125 L 7.96875 -37.53125 L 7.96875 0 Z M 3.59375 0 "/></g></g></g><g fill="#ffffff" fill-opacity="1"><g transform="translate(300.218342, 81.668597)"><g><path d="M 6.25 -31.59375 C 5.382812 -31.59375 4.664062 -31.878906 4.09375 -32.453125 C 3.519531 -33.023438 3.234375 -33.742188 3.234375 -34.609375 C 3.234375 -35.441406 3.519531 -36.132812 4.09375 -36.6875 C 4.664062 -37.25 5.382812 -37.53125 6.25 -37.53125 C 7.082031 -37.53125 7.796875 -37.25 8.390625 -36.6875 C 8.984375 -36.132812 9.28125 -35.441406 9.28125 -34.609375 C 9.28125 -33.742188 8.984375 -33.023438 8.390625 -32.453125 C 7.796875 -31.878906 7.082031 -31.59375 6.25 -31.59375 Z M 4.0625 0 L 4.0625 -25.859375 L 8.4375 -25.859375 L 8.4375 0 Z M 4.0625 0 "/></g></g></g><g fill="#ffffff" fill-opacity="1"><g transform="translate(316.896794, 81.668597)"><g><path d="M 12.203125 0.625 C 10.046875 0.625 8.253906 0.257812 6.828125 -0.46875 C 5.398438 -1.195312 4.335938 -2.171875 3.640625 -3.390625 C 2.953125 -4.609375 2.609375 -5.925781 2.609375 -7.34375 C 2.609375 -9.988281 3.613281 -12.019531 5.625 -13.4375 C 7.644531 -14.863281 10.390625 -15.578125 13.859375 -15.578125 L 20.84375 -15.578125 L 20.84375 -15.890625 C 20.84375 -18.148438 20.253906 -19.863281 19.078125 -21.03125 C 17.898438 -22.195312 16.316406 -22.78125 14.328125 -22.78125 C 12.628906 -22.78125 11.160156 -22.351562 9.921875 -21.5 C 8.691406 -20.644531 7.921875 -19.40625 7.609375 -17.78125 L 3.125 -17.78125 C 3.300781 -19.65625 3.9375 -21.234375 5.03125 -22.515625 C 6.125 -23.804688 7.488281 -24.789062 9.125 -25.46875 C 10.757812 -26.144531 12.492188 -26.484375 14.328125 -26.484375 C 17.941406 -26.484375 20.660156 -25.515625 22.484375 -23.578125 C 24.316406 -21.648438 25.234375 -19.085938 25.234375 -15.890625 L 25.234375 0 L 21.3125 0 L 21.0625 -4.640625 C 20.332031 -3.179688 19.257812 -1.9375 17.84375 -0.90625 C 16.4375 0.113281 14.554688 0.625 12.203125 0.625 Z M 12.875 -3.078125 C 14.539062 -3.078125 15.972656 -3.507812 17.171875 -4.375 C 18.367188 -5.25 19.28125 -6.378906 19.90625 -7.765625 C 20.53125 -9.160156 20.84375 -10.617188 20.84375 -12.140625 L 20.84375 -12.203125 L 14.234375 -12.203125 C 11.660156 -12.203125 9.84375 -11.753906 8.78125 -10.859375 C 7.71875 -9.972656 7.1875 -8.875 7.1875 -7.5625 C 7.1875 -6.207031 7.679688 -5.117188 8.671875 -4.296875 C 9.671875 -3.484375 11.070312 -3.078125 12.875 -3.078125 Z M 12.875 -3.078125 "/></g></g></g><g fill="#ffffff" fill-opacity="1"><g transform="translate(349.314369, 81.668597)"><g><path d="M 17.40625 0.625 C 15.289062 0.625 13.40625 0.191406 11.75 -0.671875 C 10.101562 -1.546875 8.84375 -2.765625 7.96875 -4.328125 L 7.5625 0 L 3.59375 0 L 3.59375 -37.53125 L 7.96875 -37.53125 L 7.96875 -21.578125 C 8.800781 -22.828125 9.988281 -23.957031 11.53125 -24.96875 C 13.082031 -25.976562 15.0625 -26.484375 17.46875 -26.484375 C 20.03125 -26.484375 22.265625 -25.890625 24.171875 -24.703125 C 26.085938 -23.523438 27.578125 -21.910156 28.640625 -19.859375 C 29.703125 -17.804688 30.234375 -15.476562 30.234375 -12.875 C 30.234375 -10.269531 29.703125 -7.945312 28.640625 -5.90625 C 27.578125 -3.875 26.082031 -2.273438 24.15625 -1.109375 C 22.226562 0.046875 19.976562 0.625 17.40625 0.625 Z M 16.9375 -3.171875 C 18.675781 -3.171875 20.207031 -3.578125 21.53125 -4.390625 C 22.851562 -5.210938 23.894531 -6.351562 24.65625 -7.8125 C 25.414062 -9.28125 25.796875 -10.984375 25.796875 -12.921875 C 25.796875 -14.867188 25.414062 -16.570312 24.65625 -18.03125 C 23.894531 -19.488281 22.851562 -20.625 21.53125 -21.4375 C 20.207031 -22.257812 18.675781 -22.671875 16.9375 -22.671875 C 15.195312 -22.671875 13.664062 -22.257812 12.34375 -21.4375 C 11.03125 -20.625 9.988281 -19.488281 9.21875 -18.03125 C 8.457031 -16.570312 8.078125 -14.867188 8.078125 -12.921875 C 8.078125 -10.984375 8.457031 -9.28125 9.21875 -7.8125 C 9.988281 -6.351562 11.03125 -5.210938 12.34375 -4.390625 C 13.664062 -3.578125 15.195312 -3.171875 16.9375 -3.171875 Z M 16.9375 -3.171875 "/></g></g></g><g fill="#ffffff" fill-opacity="1"><g transform="translate(386.266072, 81.668597)"><g><path d="M 3.59375 0 L 3.59375 -37.53125 L 7.96875 -37.53125 L 7.96875 0 Z M 3.59375 0 "/></g></g></g><g fill="#ffffff" fill-opacity="1"><g transform="translate(402.058536, 81.668597)"><g><path d="M 15.21875 0.625 C 12.75 0.625 10.554688 0.0625 8.640625 -1.0625 C 6.734375 -2.195312 5.234375 -3.769531 4.140625 -5.78125 C 3.046875 -7.800781 2.5 -10.179688 2.5 -12.921875 C 2.5 -15.640625 3.035156 -18.015625 4.109375 -20.046875 C 5.191406 -22.078125 6.695312 -23.65625 8.625 -24.78125 C 10.550781 -25.914062 12.785156 -26.484375 15.328125 -26.484375 C 17.828125 -26.484375 19.988281 -25.914062 21.8125 -24.78125 C 23.632812 -23.65625 25.03125 -22.171875 26 -20.328125 C 26.976562 -18.484375 27.46875 -16.503906 27.46875 -14.390625 C 27.46875 -14.003906 27.457031 -13.617188 27.4375 -13.234375 C 27.425781 -12.859375 27.421875 -12.425781 27.421875 -11.9375 L 6.828125 -11.9375 C 6.929688 -9.957031 7.390625 -8.316406 8.203125 -7.015625 C 9.023438 -5.710938 10.050781 -4.726562 11.28125 -4.0625 C 12.519531 -3.40625 13.832031 -3.078125 15.21875 -3.078125 C 17.03125 -3.078125 18.539062 -3.492188 19.75 -4.328125 C 20.96875 -5.160156 21.851562 -6.289062 22.40625 -7.71875 L 26.734375 -7.71875 C 26.046875 -5.320312 24.71875 -3.332031 22.75 -1.75 C 20.789062 -0.164062 18.28125 0.625 15.21875 0.625 Z M 15.21875 -22.78125 C 13.132812 -22.78125 11.285156 -22.144531 9.671875 -20.875 C 8.054688 -19.601562 7.125 -17.753906 6.875 -15.328125 L 23.140625 -15.328125 C 23.035156 -17.648438 22.234375 -19.472656 20.734375 -20.796875 C 19.242188 -22.117188 17.40625 -22.78125 15.21875 -22.78125 Z M 15.21875 -22.78125 "/></g></g></g><g fill="#ffffff" fill-opacity="1"><g transform="translate(435.935357, 81.668597)"><g/></g></g><g fill="#ffffff" fill-opacity="1"><g transform="translate(453.968829, 81.668597)"><g><path d="M 15.375 0.625 C 12.945312 0.625 10.757812 0.0703125 8.8125 -1.03125 C 6.863281 -2.144531 5.320312 -3.71875 4.1875 -5.75 C 3.0625 -7.789062 2.5 -10.179688 2.5 -12.921875 C 2.5 -15.671875 3.070312 -18.0625 4.21875 -20.09375 C 5.363281 -22.125 6.914062 -23.695312 8.875 -24.8125 C 10.84375 -25.925781 13.046875 -26.484375 15.484375 -26.484375 C 17.910156 -26.484375 20.097656 -25.925781 22.046875 -24.8125 C 23.992188 -23.695312 25.53125 -22.125 26.65625 -20.09375 C 27.789062 -18.0625 28.359375 -15.671875 28.359375 -12.921875 C 28.359375 -10.179688 27.785156 -7.789062 26.640625 -5.75 C 25.492188 -3.71875 23.9375 -2.144531 21.96875 -1.03125 C 20.007812 0.0703125 17.8125 0.625 15.375 0.625 Z M 15.375 -3.125 C 16.875 -3.125 18.265625 -3.488281 19.546875 -4.21875 C 20.828125 -4.945312 21.867188 -6.039062 22.671875 -7.5 C 23.472656 -8.957031 23.875 -10.765625 23.875 -12.921875 C 23.875 -15.078125 23.484375 -16.882812 22.703125 -18.34375 C 21.921875 -19.800781 20.882812 -20.894531 19.59375 -21.625 C 18.3125 -22.351562 16.941406 -22.71875 15.484375 -22.71875 C 13.984375 -22.71875 12.585938 -22.351562 11.296875 -21.625 C 10.015625 -20.894531 8.972656 -19.800781 8.171875 -18.34375 C 7.378906 -16.882812 6.984375 -15.078125 6.984375 -12.921875 C 6.984375 -10.765625 7.378906 -8.957031 8.171875 -7.5 C 8.972656 -6.039062 10.007812 -4.945312 11.28125 -4.21875 C 12.550781 -3.488281 13.914062 -3.125 15.375 -3.125 Z M 15.375 -3.125 "/></g></g></g><g fill="#ffffff" fill-opacity="1"><g transform="translate(489.044344, 81.668597)"><g><path d="M 3.59375 0 L 3.59375 -25.859375 L 7.5625 -25.859375 L 7.8125 -21.21875 C 8.644531 -22.851562 9.84375 -24.140625 11.40625 -25.078125 C 12.976562 -26.015625 14.753906 -26.484375 16.734375 -26.484375 C 19.785156 -26.484375 22.222656 -25.550781 24.046875 -23.6875 C 25.878906 -21.832031 26.796875 -18.972656 26.796875 -15.109375 L 26.796875 0 L 22.40625 0 L 22.40625 -14.640625 C 22.40625 -20.023438 20.179688 -22.71875 15.734375 -22.71875 C 13.515625 -22.71875 11.664062 -21.910156 10.1875 -20.296875 C 8.707031 -18.679688 7.96875 -16.378906 7.96875 -13.390625 L 7.96875 0 Z M 3.59375 0 "/></g></g></g><g fill="#ffffff" fill-opacity="1"><g transform="translate(523.077523, 81.668597)"><g/></g></g><g fill="#ffffff" fill-opacity="1"><g transform="translate(541.110996, 81.668597)"><g><path d="M 13.8125 0 C 11.445312 0 9.585938 -0.570312 8.234375 -1.71875 C 6.878906 -2.863281 6.203125 -4.929688 6.203125 -7.921875 L 6.203125 -22.15625 L 1.71875 -22.15625 L 1.71875 -25.859375 L 6.203125 -25.859375 L 6.78125 -32.0625 L 10.578125 -32.0625 L 10.578125 -25.859375 L 18.1875 -25.859375 L 18.1875 -22.15625 L 10.578125 -22.15625 L 10.578125 -7.921875 C 10.578125 -6.285156 10.90625 -5.179688 11.5625 -4.609375 C 12.226562 -4.035156 13.394531 -3.75 15.0625 -3.75 L 17.78125 -3.75 L 17.78125 0 Z M 13.8125 0 "/></g></g></g><g fill="#ffffff" fill-opacity="1"><g transform="translate(565.502661, 81.668597)"><g><path d="M 3.59375 0 L 3.59375 -37.53125 L 7.96875 -37.53125 L 7.96875 -21.421875 C 8.84375 -23.023438 10.078125 -24.269531 11.671875 -25.15625 C 13.273438 -26.039062 15.015625 -26.484375 16.890625 -26.484375 C 19.878906 -26.484375 22.273438 -25.550781 24.078125 -23.6875 C 25.890625 -21.832031 26.796875 -18.972656 26.796875 -15.109375 L 26.796875 0 L 22.46875 0 L 22.46875 -14.640625 C 22.46875 -20.023438 20.296875 -22.71875 15.953125 -22.71875 C 13.691406 -22.71875 11.796875 -21.910156 10.265625 -20.296875 C 8.734375 -18.679688 7.96875 -16.378906 7.96875 -13.390625 L 7.96875 0 Z M 3.59375 0 "/></g></g></g><g fill="#ffffff" fill-opacity="1"><g transform="translate(599.53584, 81.668597)"><g><path d="M 15.21875 0.625 C 12.75 0.625 10.554688 0.0625 8.640625 -1.0625 C 6.734375 -2.195312 5.234375 -3.769531 4.140625 -5.78125 C 3.046875 -7.800781 2.5 -10.179688 2.5 -12.921875 C 2.5 -15.640625 3.035156 -18.015625 4.109375 -20.046875 C 5.191406 -22.078125 6.695312 -23.65625 8.625 -24.78125 C 10.550781 -25.914062 12.785156 -26.484375 15.328125 -26.484375 C 17.828125 -26.484375 19.988281 -25.914062 21.8125 -24.78125 C 23.632812 -23.65625 25.03125 -22.171875 26 -20.328125 C 26.976562 -18.484375 27.46875 -16.503906 27.46875 -14.390625 C 27.46875 -14.003906 27.457031 -13.617188 27.4375 -13.234375 C 27.425781 -12.859375 27.421875 -12.425781 27.421875 -11.9375 L 6.828125 -11.9375 C 6.929688 -9.957031 7.390625 -8.316406 8.203125 -7.015625 C 9.023438 -5.710938 10.050781 -4.726562 11.28125 -4.0625 C 12.519531 -3.40625 13.832031 -3.078125 15.21875 -3.078125 C 17.03125 -3.078125 18.539062 -3.492188 19.75 -4.328125 C 20.96875 -5.160156 21.851562 -6.289062 22.40625 -7.71875 L 26.734375 -7.71875 C 26.046875 -5.320312 24.71875 -3.332031 22.75 -1.75 C 20.789062 -0.164062 18.28125 0.625 15.21875 0.625 Z M 15.21875 -22.78125 C 13.132812 -22.78125 11.285156 -22.144531 9.671875 -20.875 C 8.054688 -19.601562 7.125 -17.753906 6.875 -15.328125 L 23.140625 -15.328125 C 23.035156 -17.648438 22.234375 -19.472656 20.734375 -20.796875 C 19.242188 -22.117188 17.40625 -22.78125 15.21875 -22.78125 Z M 15.21875 -22.78125 "/></g></g></g><g fill="#ffffff" fill-opacity="1"><g transform="translate(181.805161, 172.10143)"><g><path d="M 3.015625 0 L 28.90625 -70.25 L 37.828125 -70.25 L 63.625 0 L 54.703125 0 L 48.265625 -18.0625 L 18.359375 -18.0625 L 11.84375 0 Z M 20.875 -24.890625 L 45.765625 -24.890625 L 33.3125 -59.609375 Z M 20.875 -24.890625 "/></g></g></g><g fill="#ffffff" fill-opacity="1"><g transform="translate(245.526111, 172.10143)"><g><path d="M 6.921875 22.078125 L 6.921875 -49.78125 L 14.546875 -49.78125 L 15.359375 -41.546875 C 16.960938 -43.953125 19.253906 -46.125 22.234375 -48.0625 C 25.210938 -50.007812 29.007812 -50.984375 33.625 -50.984375 C 38.570312 -50.984375 42.882812 -49.84375 46.5625 -47.5625 C 50.25 -45.289062 53.109375 -42.179688 55.140625 -38.234375 C 57.179688 -34.285156 58.203125 -29.800781 58.203125 -24.78125 C 58.203125 -19.769531 57.179688 -15.304688 55.140625 -11.390625 C 53.109375 -7.472656 50.234375 -4.394531 46.515625 -2.15625 C 42.804688 0.0820312 38.472656 1.203125 33.515625 1.203125 C 29.429688 1.203125 25.800781 0.367188 22.625 -1.296875 C 19.445312 -2.972656 17.023438 -5.316406 15.359375 -8.328125 L 15.359375 22.078125 Z M 32.609375 -6.125 C 35.960938 -6.125 38.910156 -6.910156 41.453125 -8.484375 C 43.992188 -10.054688 46 -12.242188 47.46875 -15.046875 C 48.9375 -17.859375 49.671875 -21.140625 49.671875 -24.890625 C 49.671875 -28.640625 48.9375 -31.914062 47.46875 -34.71875 C 46 -37.53125 43.992188 -39.722656 41.453125 -41.296875 C 38.910156 -42.867188 35.960938 -43.65625 32.609375 -43.65625 C 29.265625 -43.65625 26.320312 -42.867188 23.78125 -41.296875 C 21.238281 -39.722656 19.234375 -37.53125 17.765625 -34.71875 C 16.296875 -31.914062 15.5625 -28.640625 15.5625 -24.890625 C 15.5625 -21.140625 16.296875 -17.859375 17.765625 -15.046875 C 19.234375 -12.242188 21.238281 -10.054688 23.78125 -8.484375 C 26.320312 -6.910156 29.265625 -6.125 32.609375 -6.125 Z M 32.609375 -6.125 "/></g></g></g><g fill="#ffffff" fill-opacity="1"><g transform="translate(305.634524, 172.10143)"><g><path d="M 6.921875 22.078125 L 6.921875 -49.78125 L 14.546875 -49.78125 L 15.359375 -41.546875 C 16.960938 -43.953125 19.253906 -46.125 22.234375 -48.0625 C 25.210938 -50.007812 29.007812 -50.984375 33.625 -50.984375 C 38.570312 -50.984375 42.882812 -49.84375 46.5625 -47.5625 C 50.25 -45.289062 53.109375 -42.179688 55.140625 -38.234375 C 57.179688 -34.285156 58.203125 -29.800781 58.203125 -24.78125 C 58.203125 -19.769531 57.179688 -15.304688 55.140625 -11.390625 C 53.109375 -7.472656 50.234375 -4.394531 46.515625 -2.15625 C 42.804688 0.0820312 38.472656 1.203125 33.515625 1.203125 C 29.429688 1.203125 25.800781 0.367188 22.625 -1.296875 C 19.445312 -2.972656 17.023438 -5.316406 15.359375 -8.328125 L 15.359375 22.078125 Z M 32.609375 -6.125 C 35.960938 -6.125 38.910156 -6.910156 41.453125 -8.484375 C 43.992188 -10.054688 46 -12.242188 47.46875 -15.046875 C 48.9375 -17.859375 49.671875 -21.140625 49.671875 -24.890625 C 49.671875 -28.640625 48.9375 -31.914062 47.46875 -34.71875 C 46 -37.53125 43.992188 -39.722656 41.453125 -41.296875 C 38.910156 -42.867188 35.960938 -43.65625 32.609375 -43.65625 C 29.265625 -43.65625 26.320312 -42.867188 23.78125 -41.296875 C 21.238281 -39.722656 19.234375 -37.53125 17.765625 -34.71875 C 16.296875 -31.914062 15.5625 -28.640625 15.5625 -24.890625 C 15.5625 -21.140625 16.296875 -17.859375 17.765625 -15.046875 C 19.234375 -12.242188 21.238281 -10.054688 23.78125 -8.484375 C 26.320312 -6.910156 29.265625 -6.125 32.609375 -6.125 Z M 32.609375 -6.125 "/></g></g></g><g fill="#ffffff" fill-opacity="1"><g transform="translate(365.742926, 172.10143)"><g/></g></g><g fill="#ffffff" fill-opacity="1"><g transform="translate(389.424909, 172.10143)"><g><path d="M 29.8125 1.203125 C 24.65625 1.203125 20.171875 0.265625 16.359375 -1.609375 C 12.546875 -3.484375 9.601562 -6.09375 7.53125 -9.4375 C 5.457031 -12.78125 4.421875 -16.660156 4.421875 -21.078125 L 13.25 -21.078125 C 13.25 -18.328125 13.882812 -15.796875 15.15625 -13.484375 C 16.425781 -11.179688 18.28125 -9.34375 20.71875 -7.96875 C 23.164062 -6.601562 26.195312 -5.921875 29.8125 -5.921875 C 34.5625 -5.921875 38.238281 -7.054688 40.84375 -9.328125 C 43.457031 -11.609375 44.765625 -14.453125 44.765625 -17.859375 C 44.765625 -20.671875 44.160156 -22.929688 42.953125 -24.640625 C 41.742188 -26.347656 40.117188 -27.734375 38.078125 -28.796875 C 36.046875 -29.867188 33.707031 -30.804688 31.0625 -31.609375 C 28.414062 -32.410156 25.65625 -33.316406 22.78125 -34.328125 C 17.363281 -36.203125 13.347656 -38.523438 10.734375 -41.296875 C 8.128906 -44.078125 6.828125 -47.707031 6.828125 -52.1875 C 6.753906 -55.9375 7.617188 -59.265625 9.421875 -62.171875 C 11.234375 -65.078125 13.796875 -67.347656 17.109375 -68.984375 C 20.421875 -70.628906 24.351562 -71.453125 28.90625 -71.453125 C 33.382812 -71.453125 37.28125 -70.613281 40.59375 -68.9375 C 43.90625 -67.269531 46.476562 -64.960938 48.3125 -62.015625 C 50.15625 -59.078125 51.113281 -55.734375 51.1875 -51.984375 L 42.359375 -51.984375 C 42.359375 -53.921875 41.851562 -55.84375 40.84375 -57.75 C 39.84375 -59.65625 38.320312 -61.210938 36.28125 -62.421875 C 34.238281 -63.628906 31.679688 -64.234375 28.609375 -64.234375 C 24.785156 -64.296875 21.65625 -63.320312 19.21875 -61.3125 C 16.78125 -59.3125 15.5625 -56.535156 15.5625 -52.984375 C 15.5625 -49.972656 16.410156 -47.664062 18.109375 -46.0625 C 19.816406 -44.457031 22.207031 -43.132812 25.28125 -42.09375 C 28.363281 -41.0625 31.910156 -39.875 35.921875 -38.53125 C 39.273438 -37.332031 42.285156 -35.929688 44.953125 -34.328125 C 47.628906 -32.722656 49.71875 -30.644531 51.21875 -28.09375 C 52.726562 -25.550781 53.484375 -22.304688 53.484375 -18.359375 C 53.484375 -15.015625 52.613281 -11.851562 50.875 -8.875 C 49.132812 -5.90625 46.507812 -3.484375 43 -1.609375 C 39.488281 0.265625 35.09375 1.203125 29.8125 1.203125 Z M 29.8125 1.203125 "/></g></g></g><g fill="#ffffff" fill-opacity="1"><g transform="translate(444.515915, 172.10143)"><g><path d="M 26.59375 0 C 22.039062 0 18.457031 -1.101562 15.84375 -3.3125 C 13.238281 -5.519531 11.9375 -9.5 11.9375 -15.25 L 11.9375 -42.65625 L 3.3125 -42.65625 L 3.3125 -49.78125 L 11.9375 -49.78125 L 13.046875 -61.71875 L 20.375 -61.71875 L 20.375 -49.78125 L 35.03125 -49.78125 L 35.03125 -42.65625 L 20.375 -42.65625 L 20.375 -15.25 C 20.375 -12.101562 21.007812 -9.976562 22.28125 -8.875 C 23.550781 -7.769531 25.789062 -7.21875 29 -7.21875 L 34.21875 -7.21875 L 34.21875 0 Z M 26.59375 0 "/></g></g></g><g fill="#ffffff" fill-opacity="1"><g transform="translate(480.440401, 172.10143)"><g><path d="M 29.609375 1.203125 C 24.921875 1.203125 20.703125 0.132812 16.953125 -2 C 13.210938 -4.144531 10.253906 -7.171875 8.078125 -11.078125 C 5.898438 -14.992188 4.8125 -19.597656 4.8125 -24.890625 C 4.8125 -30.171875 5.914062 -34.769531 8.125 -38.6875 C 10.332031 -42.601562 13.328125 -45.628906 17.109375 -47.765625 C 20.890625 -49.910156 25.125 -50.984375 29.8125 -50.984375 C 34.488281 -50.984375 38.703125 -49.910156 42.453125 -47.765625 C 46.203125 -45.628906 49.160156 -42.601562 51.328125 -38.6875 C 53.503906 -34.769531 54.59375 -30.171875 54.59375 -24.890625 C 54.59375 -19.597656 53.488281 -14.992188 51.28125 -11.078125 C 49.070312 -7.171875 46.078125 -4.144531 42.296875 -2 C 38.515625 0.132812 34.285156 1.203125 29.609375 1.203125 Z M 29.609375 -6.015625 C 32.484375 -6.015625 35.15625 -6.71875 37.625 -8.125 C 40.101562 -9.53125 42.113281 -11.640625 43.65625 -14.453125 C 45.195312 -17.265625 45.96875 -20.742188 45.96875 -24.890625 C 45.96875 -29.035156 45.210938 -32.515625 43.703125 -35.328125 C 42.203125 -38.140625 40.210938 -40.242188 37.734375 -41.640625 C 35.253906 -43.046875 32.613281 -43.75 29.8125 -43.75 C 26.925781 -43.75 24.242188 -43.046875 21.765625 -41.640625 C 19.296875 -40.242188 17.289062 -38.140625 15.75 -35.328125 C 14.21875 -32.515625 13.453125 -29.035156 13.453125 -24.890625 C 13.453125 -20.742188 14.21875 -17.265625 15.75 -14.453125 C 17.289062 -11.640625 19.28125 -9.53125 21.71875 -8.125 C 24.164062 -6.71875 26.796875 -6.015625 29.609375 -6.015625 Z M 29.609375 -6.015625 "/></g></g></g><g fill="#ffffff" fill-opacity="1"><g transform="translate(536.936288, 172.10143)"><g><path d="M 6.921875 0 L 6.921875 -49.78125 L 14.546875 -49.78125 L 15.25 -40.25 C 16.789062 -43.519531 19.132812 -46.125 22.28125 -48.0625 C 25.425781 -50.007812 29.304688 -50.984375 33.921875 -50.984375 L 33.921875 -42.15625 L 31.609375 -42.15625 C 28.671875 -42.15625 25.960938 -41.632812 23.484375 -40.59375 C 21.003906 -39.5625 19.03125 -37.804688 17.5625 -35.328125 C 16.09375 -32.847656 15.359375 -29.4375 15.359375 -25.09375 L 15.359375 0 Z M 6.921875 0 "/></g></g></g><g fill="#ffffff" fill-opacity="1"><g transform="translate(570.452395, 172.10143)"><g><path d="M 29.3125 1.203125 C 24.550781 1.203125 20.332031 0.117188 16.65625 -2.046875 C 12.976562 -4.222656 10.082031 -7.25 7.96875 -11.125 C 5.863281 -15.007812 4.8125 -19.597656 4.8125 -24.890625 C 4.8125 -30.109375 5.847656 -34.671875 7.921875 -38.578125 C 10.003906 -42.492188 12.898438 -45.539062 16.609375 -47.71875 C 20.316406 -49.894531 24.613281 -50.984375 29.5 -50.984375 C 34.320312 -50.984375 38.488281 -49.894531 42 -47.71875 C 45.507812 -45.539062 48.203125 -42.679688 50.078125 -39.140625 C 51.953125 -35.597656 52.890625 -31.785156 52.890625 -27.703125 C 52.890625 -26.960938 52.875 -26.222656 52.84375 -25.484375 C 52.8125 -24.753906 52.796875 -23.921875 52.796875 -22.984375 L 13.140625 -22.984375 C 13.347656 -19.171875 14.238281 -16.007812 15.8125 -13.5 C 17.382812 -10.988281 19.359375 -9.097656 21.734375 -7.828125 C 24.109375 -6.554688 26.632812 -5.921875 29.3125 -5.921875 C 32.789062 -5.921875 35.695312 -6.722656 38.03125 -8.328125 C 40.375 -9.929688 42.082031 -12.109375 43.15625 -14.859375 L 51.484375 -14.859375 C 50.148438 -10.234375 47.59375 -6.398438 43.8125 -3.359375 C 40.03125 -0.316406 35.195312 1.203125 29.3125 1.203125 Z M 29.3125 -43.859375 C 25.289062 -43.859375 21.722656 -42.632812 18.609375 -40.1875 C 15.503906 -37.75 13.71875 -34.1875 13.25 -29.5 L 44.5625 -29.5 C 44.363281 -33.988281 42.820312 -37.503906 39.9375 -40.046875 C 37.0625 -42.585938 33.519531 -43.859375 29.3125 -43.859375 Z M 29.3125 -43.859375 "/></g></g></g></svg>