<svg xmlns="http://www.w3.org/2000/svg" xmlns:xlink="http://www.w3.org/1999/xlink" width="900" zoomAndPan="magnify" viewBox="0 0 675 232.499993" height="310" preserveAspectRatio="xMidYMid meet" version="1.0"><defs><g/><clipPath id="a4037ada4d"><path d="M 0.722656 0.386719 L 674.273438 0.386719 L 674.273438 231.613281 L 0.722656 231.613281 Z M 0.722656 0.386719 " clip-rule="nonzero"/></clipPath><clipPath id="6b6feff0ac"><path d="M 23.175781 0.386719 L 651.824219 0.386719 C 657.777344 0.386719 663.488281 2.75 667.699219 6.960938 C 671.910156 11.171875 674.277344 16.882812 674.277344 22.839844 L 674.277344 209.164062 C 674.277344 215.117188 671.910156 220.828125 667.699219 225.039062 C 663.488281 229.25 657.777344 231.613281 651.824219 231.613281 L 23.175781 231.613281 C 17.222656 231.613281 11.511719 229.25 7.300781 225.039062 C 3.089844 220.828125 0.722656 215.117188 0.722656 209.164062 L 0.722656 22.839844 C 0.722656 16.882812 3.089844 11.171875 7.300781 6.960938 C 11.511719 2.75 17.222656 0.386719 23.175781 0.386719 Z M 23.175781 0.386719 " clip-rule="nonzero"/></clipPath><clipPath id="5f17247296"><path d="M 59.695312 59.519531 L 182.429688 59.519531 L 182.429688 183.273438 L 59.695312 183.273438 Z M 59.695312 59.519531 " clip-rule="nonzero"/></clipPath><clipPath id="8211b2cb77"><path d="M 178.617188 115.300781 L 71.6875 60.613281 C 69.132812 59.308594 66.082031 59.425781 63.636719 60.921875 C 61.1875 62.417969 59.695312 65.082031 59.695312 67.953125 L 59.695312 174.917969 C 59.695312 177.785156 61.1875 180.449219 63.636719 181.945312 C 66.082031 183.445312 69.132812 183.558594 71.6875 182.253906 L 178.617188 127.566406 C 180.921875 126.390625 182.371094 124.019531 182.371094 121.433594 C 182.371094 118.847656 180.921875 116.476562 178.617188 115.300781 Z M 178.617188 115.300781 " clip-rule="nonzero"/></clipPath><clipPath id="c335ca6c19"><path d="M 59.695312 59 L 183 59 L 183 184 L 59.695312 184 Z M 59.695312 59 " clip-rule="nonzero"/></clipPath><clipPath id="93c50a692f"><path d="M 178.613281 115.300781 L 71.6875 60.617188 C 69.132812 59.3125 66.082031 59.429688 63.636719 60.925781 C 61.1875 62.421875 59.695312 65.085938 59.695312 67.957031 L 59.695312 174.917969 C 59.695312 177.785156 61.1875 180.449219 63.636719 181.945312 C 66.082031 183.445312 69.132812 183.558594 71.6875 182.253906 L 178.613281 127.570312 C 180.914062 126.390625 182.363281 124.023438 182.363281 121.4375 C 182.363281 118.847656 180.914062 116.480469 178.613281 115.300781 Z M 178.613281 115.300781 " clip-rule="nonzero"/></clipPath></defs><g clip-path="url(#a4037ada4d)"><g clip-path="url(#6b6feff0ac)"><path fill="#494949" d="M 0.722656 0.386719 L 674.539062 0.386719 L 674.539062 231.613281 L 0.722656 231.613281 Z M 0.722656 0.386719 " fill-opacity="1" fill-rule="nonzero"/></g></g><g clip-path="url(#5f17247296)"><g clip-path="url(#8211b2cb77)"><path fill="#ffffff" d="M 59.695312 188.386719 L 59.695312 54.40625 L 190.609375 54.40625 L 190.609375 188.386719 Z M 59.695312 188.386719 " fill-opacity="1" fill-rule="nonzero"/></g></g><g clip-path="url(#c335ca6c19)"><g clip-path="url(#93c50a692f)"><path stroke-linecap="butt" transform="matrix(0, -0.748391, 0.748391, 0, 59.695527, 188.386948)" fill="none" stroke-linejoin="miter" d="M 97.657796 158.898 L 170.726058 16.023684 C 172.469383 12.610109 172.312797 8.533652 170.313715 5.266224 C 168.314633 1.993576 164.754911 -0.000286473 160.918553 -0.000286473 L 17.997262 -0.000286473 C 14.166123 -0.000286473 10.606401 1.993576 8.607319 5.266224 C 6.603018 8.533652 6.451651 12.610109 8.194976 16.023684 L 81.263238 158.898 C 82.839538 161.972306 86.002576 163.908753 89.457907 163.908753 C 92.918459 163.908753 96.081497 161.972306 97.657796 158.898 Z M 97.657796 158.898 " stroke="#494949" stroke-width="8" stroke-opacity="1" stroke-miterlimit="4"/></g></g><path stroke-linecap="butt" transform="matrix(0.546357, 0.511451, -0.511451, 0.546357, 63.937033, 60.710549)" fill="none" stroke-linejoin="miter" d="M 0.00123349 2.001452 L 157.047727 1.99912 " stroke="#494949" stroke-width="4" stroke-opacity="1" stroke-miterlimit="4"/><path stroke-linecap="butt" transform="matrix(0.560013, -0.496461, 0.496461, 0.560013, 61.921382, 177.032725)" fill="none" stroke-linejoin="miter" d="M 0.000120575 1.999379 L 153.218386 2.000202 " stroke="#494949" stroke-width="4" stroke-opacity="1" stroke-miterlimit="4"/><g fill="#ffffff" fill-opacity="1"><g transform="translate(192.969649, 159.885871)"><g><path d="M 33.71875 0.828125 C 29.5625 0.828125 25.675781 0.078125 22.0625 -1.421875 C 18.457031 -2.929688 15.285156 -5.023438 12.546875 -7.703125 C 9.816406 -10.390625 7.695312 -13.523438 6.1875 -17.109375 C 4.6875 -20.691406 3.9375 -24.5625 3.9375 -28.71875 C 3.9375 -32.8125 4.6875 -36.632812 6.1875 -40.1875 C 7.695312 -43.75 9.804688 -46.851562 12.515625 -49.5 C 15.222656 -52.15625 18.378906 -54.222656 21.984375 -55.703125 C 25.597656 -57.179688 29.484375 -57.921875 33.640625 -57.921875 C 36.535156 -57.921875 39.363281 -57.507812 42.125 -56.6875 C 44.882812 -55.863281 47.382812 -54.710938 49.625 -53.234375 C 51.875 -51.765625 53.707031 -50.070312 55.125 -48.15625 L 49.390625 -42.171875 C 46.921875 -44.515625 44.359375 -46.285156 41.703125 -47.484375 C 39.054688 -48.691406 36.367188 -49.296875 33.640625 -49.296875 C 30.679688 -49.296875 27.957031 -48.773438 25.46875 -47.734375 C 22.976562 -46.703125 20.789062 -45.253906 18.90625 -43.390625 C 17.019531 -41.535156 15.554688 -39.363281 14.515625 -36.875 C 13.484375 -34.382812 12.96875 -31.664062 12.96875 -28.71875 C 12.96875 -25.875 13.515625 -23.175781 14.609375 -20.625 C 15.703125 -18.082031 17.21875 -15.851562 19.15625 -13.9375 C 21.09375 -12.03125 23.332031 -10.53125 25.875 -9.4375 C 28.425781 -8.34375 31.125 -7.796875 33.96875 -7.796875 C 36.09375 -7.796875 38.113281 -8.109375 40.03125 -8.734375 C 41.945312 -9.367188 43.640625 -10.257812 45.109375 -11.40625 C 46.585938 -12.550781 47.738281 -13.875 48.5625 -15.375 C 49.382812 -16.882812 49.796875 -18.488281 49.796875 -20.1875 L 49.796875 -21.828125 L 51.03125 -20.671875 L 33.46875 -20.671875 L 33.46875 -29.453125 L 58.90625 -29.453125 C 59.007812 -28.847656 59.085938 -28.257812 59.140625 -27.6875 C 59.203125 -27.113281 59.242188 -26.566406 59.265625 -26.046875 C 59.296875 -25.523438 59.3125 -25.019531 59.3125 -24.53125 C 59.3125 -20.757812 58.65625 -17.328125 57.34375 -14.234375 C 56.03125 -11.140625 54.210938 -8.472656 51.890625 -6.234375 C 49.566406 -3.992188 46.859375 -2.253906 43.765625 -1.015625 C 40.671875 0.210938 37.320312 0.828125 33.71875 0.828125 Z M 33.71875 0.828125 "/></g></g></g><g fill="#ffffff" fill-opacity="1"><g transform="translate(252.850064, 159.885871)"><g><path d="M 25.265625 0.828125 C 21.054688 0.828125 17.296875 -0.140625 13.984375 -2.078125 C 10.679688 -4.023438 8.070312 -6.679688 6.15625 -10.046875 C 4.238281 -13.410156 3.28125 -17.253906 3.28125 -21.578125 C 3.28125 -25.898438 4.238281 -29.738281 6.15625 -33.09375 C 8.070312 -36.457031 10.679688 -39.109375 13.984375 -41.046875 C 17.296875 -42.992188 21.054688 -43.96875 25.265625 -43.96875 C 29.421875 -43.96875 33.148438 -42.992188 36.453125 -41.046875 C 39.765625 -39.109375 42.378906 -36.457031 44.296875 -33.09375 C 46.210938 -29.738281 47.171875 -25.898438 47.171875 -21.578125 C 47.171875 -17.253906 46.210938 -13.410156 44.296875 -10.046875 C 42.378906 -6.679688 39.765625 -4.023438 36.453125 -2.078125 C 33.148438 -0.140625 29.421875 0.828125 25.265625 0.828125 Z M 25.265625 -6.890625 C 27.835938 -6.890625 30.132812 -7.53125 32.15625 -8.8125 C 34.175781 -10.101562 35.757812 -11.851562 36.90625 -14.0625 C 38.0625 -16.28125 38.613281 -18.785156 38.5625 -21.578125 C 38.613281 -24.421875 38.0625 -26.945312 36.90625 -29.15625 C 35.757812 -31.375 34.175781 -33.113281 32.15625 -34.375 C 30.132812 -35.632812 27.835938 -36.265625 25.265625 -36.265625 C 22.691406 -36.265625 20.378906 -35.617188 18.328125 -34.328125 C 16.285156 -33.046875 14.6875 -31.296875 13.53125 -29.078125 C 12.382812 -26.867188 11.835938 -24.367188 11.890625 -21.578125 C 11.835938 -18.785156 12.382812 -16.28125 13.53125 -14.0625 C 14.6875 -11.851562 16.285156 -10.101562 18.328125 -8.8125 C 20.378906 -7.53125 22.691406 -6.890625 25.265625 -6.890625 Z M 25.265625 -6.890625 "/></g></g></g><g fill="#ffffff" fill-opacity="1"><g transform="translate(300.344192, 159.885871)"><g><path d="M 25.265625 0.828125 C 21.054688 0.828125 17.296875 -0.140625 13.984375 -2.078125 C 10.679688 -4.023438 8.070312 -6.679688 6.15625 -10.046875 C 4.238281 -13.410156 3.28125 -17.253906 3.28125 -21.578125 C 3.28125 -25.898438 4.238281 -29.738281 6.15625 -33.09375 C 8.070312 -36.457031 10.679688 -39.109375 13.984375 -41.046875 C 17.296875 -42.992188 21.054688 -43.96875 25.265625 -43.96875 C 29.421875 -43.96875 33.148438 -42.992188 36.453125 -41.046875 C 39.765625 -39.109375 42.378906 -36.457031 44.296875 -33.09375 C 46.210938 -29.738281 47.171875 -25.898438 47.171875 -21.578125 C 47.171875 -17.253906 46.210938 -13.410156 44.296875 -10.046875 C 42.378906 -6.679688 39.765625 -4.023438 36.453125 -2.078125 C 33.148438 -0.140625 29.421875 0.828125 25.265625 0.828125 Z M 25.265625 -6.890625 C 27.835938 -6.890625 30.132812 -7.53125 32.15625 -8.8125 C 34.175781 -10.101562 35.757812 -11.851562 36.90625 -14.0625 C 38.0625 -16.28125 38.613281 -18.785156 38.5625 -21.578125 C 38.613281 -24.421875 38.0625 -26.945312 36.90625 -29.15625 C 35.757812 -31.375 34.175781 -33.113281 32.15625 -34.375 C 30.132812 -35.632812 27.835938 -36.265625 25.265625 -36.265625 C 22.691406 -36.265625 20.378906 -35.617188 18.328125 -34.328125 C 16.285156 -33.046875 14.6875 -31.296875 13.53125 -29.078125 C 12.382812 -26.867188 11.835938 -24.367188 11.890625 -21.578125 C 11.835938 -18.785156 12.382812 -16.28125 13.53125 -14.0625 C 14.6875 -11.851562 16.285156 -10.101562 18.328125 -8.8125 C 20.378906 -7.53125 22.691406 -6.890625 25.265625 -6.890625 Z M 25.265625 -6.890625 "/></g></g></g><g fill="#ffffff" fill-opacity="1"><g transform="translate(347.838327, 159.885871)"><g><path d="M 25.1875 18.875 C 22.125 18.875 19.070312 18.394531 16.03125 17.4375 C 13 16.476562 10.554688 15.234375 8.703125 13.703125 L 11.8125 7.140625 C 13.457031 8.398438 15.492188 9.410156 17.921875 10.171875 C 20.359375 10.941406 22.78125 11.328125 25.1875 11.328125 C 28.195312 11.328125 30.710938 10.832031 32.734375 9.84375 C 34.753906 8.863281 36.285156 7.414062 37.328125 5.5 C 38.367188 3.582031 38.890625 1.203125 38.890625 -1.640625 L 38.890625 -9.921875 L 39.78125 -9.359375 C 39.507812 -7.660156 38.617188 -6.03125 37.109375 -4.46875 C 35.609375 -2.914062 33.738281 -1.644531 31.5 -0.65625 C 29.257812 0.332031 26.960938 0.828125 24.609375 0.828125 C 20.503906 0.828125 16.851562 -0.140625 13.65625 -2.078125 C 10.457031 -4.023438 7.925781 -6.679688 6.0625 -10.046875 C 4.207031 -13.410156 3.28125 -17.253906 3.28125 -21.578125 C 3.28125 -25.898438 4.195312 -29.738281 6.03125 -33.09375 C 7.863281 -36.457031 10.378906 -39.109375 13.578125 -41.046875 C 16.773438 -42.992188 20.367188 -43.96875 24.359375 -43.96875 C 26.003906 -43.96875 27.59375 -43.757812 29.125 -43.34375 C 30.65625 -42.9375 32.078125 -42.363281 33.390625 -41.625 C 34.703125 -40.894531 35.875 -40.09375 36.90625 -39.21875 C 37.945312 -38.34375 38.796875 -37.410156 39.453125 -36.421875 C 40.109375 -35.441406 40.519531 -34.515625 40.6875 -33.640625 L 38.890625 -32.984375 L 38.890625 -43.0625 L 47.328125 -43.0625 L 47.328125 -2.625 C 47.328125 0.820312 46.820312 3.867188 45.8125 6.515625 C 44.800781 9.171875 43.335938 11.414062 41.421875 13.25 C 39.515625 15.082031 37.191406 16.476562 34.453125 17.4375 C 31.722656 18.394531 28.632812 18.875 25.1875 18.875 Z M 25.515625 -6.96875 C 28.191406 -6.96875 30.566406 -7.597656 32.640625 -8.859375 C 34.722656 -10.117188 36.335938 -11.84375 37.484375 -14.03125 C 38.640625 -16.21875 39.21875 -18.734375 39.21875 -21.578125 C 39.21875 -24.421875 38.628906 -26.945312 37.453125 -29.15625 C 36.273438 -31.375 34.660156 -33.113281 32.609375 -34.375 C 30.554688 -35.632812 28.191406 -36.265625 25.515625 -36.265625 C 22.890625 -36.265625 20.550781 -35.617188 18.5 -34.328125 C 16.445312 -33.046875 14.832031 -31.296875 13.65625 -29.078125 C 12.476562 -26.867188 11.890625 -24.367188 11.890625 -21.578125 C 11.890625 -18.785156 12.476562 -16.28125 13.65625 -14.0625 C 14.832031 -11.851562 16.445312 -10.117188 18.5 -8.859375 C 20.550781 -7.597656 22.890625 -6.96875 25.515625 -6.96875 Z M 25.515625 -6.96875 "/></g></g></g><g fill="#ffffff" fill-opacity="1"><g transform="translate(398.121428, 159.885871)"><g><path d="M 6.078125 0 L 6.078125 -60.703125 L 14.515625 -60.703125 L 14.515625 0 Z M 6.078125 0 "/></g></g></g><g fill="#ffffff" fill-opacity="1"><g transform="translate(415.757244, 159.885871)"><g><path d="M 26 0.828125 C 21.570312 0.828125 17.648438 -0.113281 14.234375 -2 C 10.816406 -3.894531 8.132812 -6.484375 6.1875 -9.765625 C 4.25 -13.046875 3.28125 -16.816406 3.28125 -21.078125 C 3.28125 -24.472656 3.828125 -27.5625 4.921875 -30.34375 C 6.015625 -33.132812 7.53125 -35.554688 9.46875 -37.609375 C 11.414062 -39.660156 13.742188 -41.242188 16.453125 -42.359375 C 19.160156 -43.484375 22.097656 -44.046875 25.265625 -44.046875 C 28.054688 -44.046875 30.65625 -43.515625 33.0625 -42.453125 C 35.46875 -41.390625 37.554688 -39.925781 39.328125 -38.0625 C 41.109375 -36.207031 42.476562 -34.003906 43.4375 -31.453125 C 44.394531 -28.910156 44.847656 -26.140625 44.796875 -23.140625 L 44.703125 -19.53125 L 9.515625 -19.53125 L 7.625 -26.25 L 37.40625 -26.25 L 36.171875 -24.859375 L 36.171875 -26.828125 C 36.015625 -28.628906 35.414062 -30.238281 34.375 -31.65625 C 33.332031 -33.082031 32.019531 -34.207031 30.4375 -35.03125 C 28.851562 -35.851562 27.128906 -36.265625 25.265625 -36.265625 C 22.316406 -36.265625 19.828125 -35.703125 17.796875 -34.578125 C 15.773438 -33.453125 14.242188 -31.8125 13.203125 -29.65625 C 12.171875 -27.5 11.65625 -24.832031 11.65625 -21.65625 C 11.65625 -18.644531 12.28125 -16.03125 13.53125 -13.8125 C 14.789062 -11.601562 16.566406 -9.894531 18.859375 -8.6875 C 21.160156 -7.488281 23.816406 -6.890625 26.828125 -6.890625 C 28.960938 -6.890625 30.941406 -7.242188 32.765625 -7.953125 C 34.597656 -8.671875 36.582031 -9.957031 38.71875 -11.8125 L 42.984375 -5.828125 C 41.671875 -4.515625 40.070312 -3.363281 38.1875 -2.375 C 36.300781 -1.394531 34.304688 -0.613281 32.203125 -0.03125 C 30.097656 0.539062 28.03125 0.828125 26 0.828125 Z M 26 0.828125 "/></g></g></g><g fill="#ffffff" fill-opacity="1"><g transform="translate(460.872547, 159.885871)"><g/></g></g><g fill="#ffffff" fill-opacity="1"><g transform="translate(480.887194, 159.885871)"><g><path d="M 8.046875 0 L 8.046875 -57.421875 L 31.421875 -57.421875 C 34.535156 -57.421875 37.363281 -56.640625 39.90625 -55.078125 C 42.445312 -53.523438 44.484375 -51.40625 46.015625 -48.71875 C 47.546875 -46.039062 48.3125 -43.0625 48.3125 -39.78125 C 48.3125 -36.5 47.546875 -33.519531 46.015625 -30.84375 C 44.484375 -28.164062 42.445312 -26.019531 39.90625 -24.40625 C 37.363281 -22.789062 34.535156 -21.984375 31.421875 -21.984375 L 16.90625 -21.984375 L 16.90625 0 Z M 16.90625 -30.515625 L 31.25 -30.515625 C 32.726562 -30.515625 34.066406 -30.9375 35.265625 -31.78125 C 36.472656 -32.632812 37.445312 -33.757812 38.1875 -35.15625 C 38.925781 -36.550781 39.296875 -38.09375 39.296875 -39.78125 C 39.296875 -41.476562 38.925781 -43.007812 38.1875 -44.375 C 37.445312 -45.75 36.472656 -46.84375 35.265625 -47.65625 C 34.066406 -48.476562 32.726562 -48.890625 31.25 -48.890625 L 16.90625 -48.890625 Z M 16.90625 -30.515625 "/></g></g></g><g fill="#ffffff" fill-opacity="1"><g transform="translate(529.939866, 159.885871)"><g><path d="M 6.078125 0 L 6.078125 -60.703125 L 14.515625 -60.703125 L 14.515625 0 Z M 6.078125 0 "/></g></g></g><g fill="#ffffff" fill-opacity="1"><g transform="translate(547.575682, 159.885871)"><g><path d="M 31.421875 0 L 31.421875 -28.0625 C 31.421875 -30.46875 30.554688 -32.421875 28.828125 -33.921875 C 27.109375 -35.421875 24.9375 -36.171875 22.3125 -36.171875 C 19.90625 -36.171875 17.726562 -35.675781 15.78125 -34.6875 C 13.84375 -33.707031 12.082031 -32.207031 10.5 -30.1875 L 5 -35.6875 C 7.570312 -38.476562 10.347656 -40.554688 13.328125 -41.921875 C 16.304688 -43.285156 19.519531 -43.96875 22.96875 -43.96875 C 26.25 -43.96875 29.09375 -43.421875 31.5 -42.328125 C 33.90625 -41.234375 35.765625 -39.632812 37.078125 -37.53125 C 38.390625 -35.425781 39.046875 -32.867188 39.046875 -29.859375 L 39.046875 0 Z M 18.546875 0.828125 C 15.753906 0.828125 13.265625 0.28125 11.078125 -0.8125 C 8.890625 -1.914062 7.148438 -3.4375 5.859375 -5.375 C 4.578125 -7.3125 3.9375 -9.59375 3.9375 -12.21875 C 3.9375 -14.519531 4.347656 -16.546875 5.171875 -18.296875 C 5.992188 -20.046875 7.207031 -21.492188 8.8125 -22.640625 C 10.425781 -23.785156 12.453125 -24.660156 14.890625 -25.265625 C 17.328125 -25.867188 20.128906 -26.171875 23.296875 -26.171875 L 35.28125 -26.171875 L 34.53125 -19.4375 L 22.234375 -19.4375 C 20.585938 -19.4375 19.125 -19.285156 17.84375 -18.984375 C 16.5625 -18.691406 15.46875 -18.226562 14.5625 -17.59375 C 13.65625 -16.96875 12.984375 -16.226562 12.546875 -15.375 C 12.109375 -14.53125 11.890625 -13.535156 11.890625 -12.390625 C 11.890625 -11.179688 12.191406 -10.125 12.796875 -9.21875 C 13.398438 -8.320312 14.21875 -7.628906 15.25 -7.140625 C 16.289062 -6.648438 17.5 -6.40625 18.875 -6.40625 C 20.84375 -6.40625 22.710938 -6.742188 24.484375 -7.421875 C 26.265625 -8.109375 27.851562 -9.050781 29.25 -10.25 C 30.644531 -11.457031 31.722656 -12.800781 32.484375 -14.28125 L 34.453125 -8.78125 C 33.304688 -6.863281 31.882812 -5.191406 30.1875 -3.765625 C 28.488281 -2.347656 26.65625 -1.226562 24.6875 -0.40625 C 22.71875 0.414062 20.671875 0.828125 18.546875 0.828125 Z M 18.546875 0.828125 "/></g></g></g><g fill="#ffffff" fill-opacity="1"><g transform="translate(588.42553, 159.885871)"><g><path d="M 13.125 18.875 L 21.828125 -1.234375 L 21.90625 5.5 L 0.40625 -43.0625 L 10.25 -43.0625 L 23.703125 -11.40625 C 23.984375 -10.851562 24.3125 -10.015625 24.6875 -8.890625 C 25.070312 -7.773438 25.398438 -6.671875 25.671875 -5.578125 L 23.546875 -5.09375 C 23.984375 -6.238281 24.40625 -7.382812 24.8125 -8.53125 C 25.226562 -9.675781 25.625 -10.828125 26 -11.984375 L 37.25 -43.0625 L 47.25 -43.0625 L 29.53125 0 L 22.234375 18.875 Z M 13.125 18.875 "/></g></g></g><g fill="#ffffff" fill-opacity="1"><g transform="translate(196.726482, 83.123397)"><g><path d="M 12.765625 -4.046875 L 4.828125 -4.046875 L 3.359375 0 L 0.859375 0 L 7.4375 -18.078125 L 10.171875 -18.078125 L 16.71875 0 L 14.21875 0 Z M 12.078125 -5.96875 L 8.796875 -15.15625 L 5.5 -5.96875 Z M 12.078125 -5.96875 "/></g></g></g><g fill="#ffffff" fill-opacity="1"><g transform="translate(215.093035, 83.123397)"><g><path d="M 16.3125 0 L 13.9375 0 L 4.390625 -14.484375 L 4.390625 0 L 2.015625 0 L 2.015625 -18.21875 L 4.390625 -18.21875 L 13.9375 -3.75 L 13.9375 -18.21875 L 16.3125 -18.21875 Z M 16.3125 0 "/></g></g></g><g fill="#ffffff" fill-opacity="1"><g transform="translate(234.216154, 83.123397)"><g><path d="M 7.671875 -18.1875 C 9.648438 -18.1875 11.363281 -17.816406 12.8125 -17.078125 C 14.269531 -16.335938 15.382812 -15.28125 16.15625 -13.90625 C 16.9375 -12.53125 17.328125 -10.910156 17.328125 -9.046875 C 17.328125 -7.191406 16.9375 -5.582031 16.15625 -4.21875 C 15.382812 -2.851562 14.269531 -1.804688 12.8125 -1.078125 C 11.363281 -0.359375 9.648438 0 7.671875 0 L 2.015625 0 L 2.015625 -18.1875 Z M 7.671875 -1.953125 C 10.015625 -1.953125 11.804688 -2.570312 13.046875 -3.8125 C 14.285156 -5.0625 14.90625 -6.804688 14.90625 -9.046875 C 14.90625 -11.316406 14.28125 -13.082031 13.03125 -14.34375 C 11.789062 -15.613281 10.003906 -16.25 7.671875 -16.25 L 4.390625 -16.25 L 4.390625 -1.953125 Z M 7.671875 -1.953125 "/></g></g></g><g fill="#ffffff" fill-opacity="1"><g transform="translate(253.443627, 83.123397)"><g><path d="M 11.578125 0 L 7.25 -7.4375 L 4.390625 -7.4375 L 4.390625 0 L 2.015625 0 L 2.015625 -18.1875 L 7.875 -18.1875 C 9.25 -18.1875 10.410156 -17.953125 11.359375 -17.484375 C 12.304688 -17.015625 13.015625 -16.378906 13.484375 -15.578125 C 13.953125 -14.773438 14.1875 -13.863281 14.1875 -12.84375 C 14.1875 -11.582031 13.828125 -10.472656 13.109375 -9.515625 C 12.390625 -8.566406 11.304688 -7.9375 9.859375 -7.625 L 14.4375 0 Z M 4.390625 -9.34375 L 7.875 -9.34375 C 9.164062 -9.34375 10.128906 -9.660156 10.765625 -10.296875 C 11.410156 -10.929688 11.734375 -11.78125 11.734375 -12.84375 C 11.734375 -13.914062 11.414062 -14.75 10.78125 -15.34375 C 10.15625 -15.9375 9.1875 -16.234375 7.875 -16.234375 L 4.390625 -16.234375 Z M 4.390625 -9.34375 "/></g></g></g><g fill="#ffffff" fill-opacity="1"><g transform="translate(270.088354, 83.123397)"><g><path d="M 10.25 0.1875 C 8.5625 0.1875 7.019531 -0.207031 5.625 -1 C 4.238281 -1.789062 3.140625 -2.894531 2.328125 -4.3125 C 1.523438 -5.726562 1.125 -7.328125 1.125 -9.109375 C 1.125 -10.878906 1.523438 -12.472656 2.328125 -13.890625 C 3.140625 -15.304688 4.238281 -16.410156 5.625 -17.203125 C 7.019531 -17.992188 8.5625 -18.390625 10.25 -18.390625 C 11.957031 -18.390625 13.503906 -17.992188 14.890625 -17.203125 C 16.285156 -16.410156 17.382812 -15.3125 18.1875 -13.90625 C 18.988281 -12.5 19.390625 -10.898438 19.390625 -9.109375 C 19.390625 -7.316406 18.988281 -5.710938 18.1875 -4.296875 C 17.382812 -2.890625 16.285156 -1.789062 14.890625 -1 C 13.503906 -0.207031 11.957031 0.1875 10.25 0.1875 Z M 10.25 -1.875 C 11.519531 -1.875 12.664062 -2.171875 13.6875 -2.765625 C 14.707031 -3.359375 15.503906 -4.203125 16.078125 -5.296875 C 16.660156 -6.390625 16.953125 -7.660156 16.953125 -9.109375 C 16.953125 -10.566406 16.660156 -11.835938 16.078125 -12.921875 C 15.503906 -14.015625 14.710938 -14.851562 13.703125 -15.4375 C 12.691406 -16.03125 11.539062 -16.328125 10.25 -16.328125 C 8.96875 -16.328125 7.820312 -16.03125 6.8125 -15.4375 C 5.800781 -14.851562 5.003906 -14.015625 4.421875 -12.921875 C 3.835938 -11.835938 3.546875 -10.566406 3.546875 -9.109375 C 3.546875 -7.660156 3.835938 -6.390625 4.421875 -5.296875 C 5.003906 -4.203125 5.800781 -3.359375 6.8125 -2.765625 C 7.832031 -2.171875 8.976562 -1.875 10.25 -1.875 Z M 10.25 -1.875 "/></g></g></g><g fill="#ffffff" fill-opacity="1"><g transform="translate(291.376813, 83.123397)"><g><path d="M 4.390625 -18.1875 L 4.390625 0 L 2.015625 0 L 2.015625 -18.1875 Z M 4.390625 -18.1875 "/></g></g></g><g fill="#ffffff" fill-opacity="1"><g transform="translate(298.577544, 83.123397)"><g><path d="M 7.671875 -18.1875 C 9.648438 -18.1875 11.363281 -17.816406 12.8125 -17.078125 C 14.269531 -16.335938 15.382812 -15.28125 16.15625 -13.90625 C 16.9375 -12.53125 17.328125 -10.910156 17.328125 -9.046875 C 17.328125 -7.191406 16.9375 -5.582031 16.15625 -4.21875 C 15.382812 -2.851562 14.269531 -1.804688 12.8125 -1.078125 C 11.363281 -0.359375 9.648438 0 7.671875 0 L 2.015625 0 L 2.015625 -18.1875 Z M 7.671875 -1.953125 C 10.015625 -1.953125 11.804688 -2.570312 13.046875 -3.8125 C 14.285156 -5.0625 14.90625 -6.804688 14.90625 -9.046875 C 14.90625 -11.316406 14.28125 -13.082031 13.03125 -14.34375 C 11.789062 -15.613281 10.003906 -16.25 7.671875 -16.25 L 4.390625 -16.25 L 4.390625 -1.953125 Z M 7.671875 -1.953125 "/></g></g></g><g fill="#ffffff" fill-opacity="1"><g transform="translate(317.805011, 83.123397)"><g/></g></g><g fill="#ffffff" fill-opacity="1"><g transform="translate(325.553602, 83.123397)"><g><path d="M 12.765625 -4.046875 L 4.828125 -4.046875 L 3.359375 0 L 0.859375 0 L 7.4375 -18.078125 L 10.171875 -18.078125 L 16.71875 0 L 14.21875 0 Z M 12.078125 -5.96875 L 8.796875 -15.15625 L 5.5 -5.96875 Z M 12.078125 -5.96875 "/></g></g></g><g fill="#ffffff" fill-opacity="1"><g transform="translate(343.920162, 83.123397)"><g><path d="M 14.171875 -12.859375 C 14.171875 -11.347656 13.648438 -10.09375 12.609375 -9.09375 C 11.578125 -8.09375 10 -7.59375 7.875 -7.59375 L 4.390625 -7.59375 L 4.390625 0 L 2.015625 0 L 2.015625 -18.1875 L 7.875 -18.1875 C 9.925781 -18.1875 11.488281 -17.691406 12.5625 -16.703125 C 13.632812 -15.710938 14.171875 -14.429688 14.171875 -12.859375 Z M 7.875 -9.546875 C 9.195312 -9.546875 10.171875 -9.832031 10.796875 -10.40625 C 11.421875 -10.976562 11.734375 -11.796875 11.734375 -12.859375 C 11.734375 -15.109375 10.445312 -16.234375 7.875 -16.234375 L 4.390625 -16.234375 L 4.390625 -9.546875 Z M 7.875 -9.546875 "/></g></g></g><g fill="#ffffff" fill-opacity="1"><g transform="translate(359.808316, 83.123397)"><g><path d="M 14.171875 -12.859375 C 14.171875 -11.347656 13.648438 -10.09375 12.609375 -9.09375 C 11.578125 -8.09375 10 -7.59375 7.875 -7.59375 L 4.390625 -7.59375 L 4.390625 0 L 2.015625 0 L 2.015625 -18.1875 L 7.875 -18.1875 C 9.925781 -18.1875 11.488281 -17.691406 12.5625 -16.703125 C 13.632812 -15.710938 14.171875 -14.429688 14.171875 -12.859375 Z M 7.875 -9.546875 C 9.195312 -9.546875 10.171875 -9.832031 10.796875 -10.40625 C 11.421875 -10.976562 11.734375 -11.796875 11.734375 -12.859375 C 11.734375 -15.109375 10.445312 -16.234375 7.875 -16.234375 L 4.390625 -16.234375 L 4.390625 -9.546875 Z M 7.875 -9.546875 "/></g></g></g><g fill="#ffffff" fill-opacity="1"><g transform="translate(375.696471, 83.123397)"><g/></g></g><g fill="#ffffff" fill-opacity="1"><g transform="translate(383.445062, 83.123397)"><g><path d="M 10.25 0.1875 C 8.5625 0.1875 7.019531 -0.207031 5.625 -1 C 4.238281 -1.789062 3.140625 -2.894531 2.328125 -4.3125 C 1.523438 -5.726562 1.125 -7.328125 1.125 -9.109375 C 1.125 -10.878906 1.523438 -12.472656 2.328125 -13.890625 C 3.140625 -15.304688 4.238281 -16.410156 5.625 -17.203125 C 7.019531 -17.992188 8.5625 -18.390625 10.25 -18.390625 C 11.957031 -18.390625 13.503906 -17.992188 14.890625 -17.203125 C 16.285156 -16.410156 17.382812 -15.3125 18.1875 -13.90625 C 18.988281 -12.5 19.390625 -10.898438 19.390625 -9.109375 C 19.390625 -7.316406 18.988281 -5.710938 18.1875 -4.296875 C 17.382812 -2.890625 16.285156 -1.789062 14.890625 -1 C 13.503906 -0.207031 11.957031 0.1875 10.25 0.1875 Z M 10.25 -1.875 C 11.519531 -1.875 12.664062 -2.171875 13.6875 -2.765625 C 14.707031 -3.359375 15.503906 -4.203125 16.078125 -5.296875 C 16.660156 -6.390625 16.953125 -7.660156 16.953125 -9.109375 C 16.953125 -10.566406 16.660156 -11.835938 16.078125 -12.921875 C 15.503906 -14.015625 14.710938 -14.851562 13.703125 -15.4375 C 12.691406 -16.03125 11.539062 -16.328125 10.25 -16.328125 C 8.96875 -16.328125 7.820312 -16.03125 6.8125 -15.4375 C 5.800781 -14.851562 5.003906 -14.015625 4.421875 -12.921875 C 3.835938 -11.835938 3.546875 -10.566406 3.546875 -9.109375 C 3.546875 -7.660156 3.835938 -6.390625 4.421875 -5.296875 C 5.003906 -4.203125 5.800781 -3.359375 6.8125 -2.765625 C 7.832031 -2.171875 8.976562 -1.875 10.25 -1.875 Z M 10.25 -1.875 "/></g></g></g><g fill="#ffffff" fill-opacity="1"><g transform="translate(404.733522, 83.123397)"><g><path d="M 16.3125 0 L 13.9375 0 L 4.390625 -14.484375 L 4.390625 0 L 2.015625 0 L 2.015625 -18.21875 L 4.390625 -18.21875 L 13.9375 -3.75 L 13.9375 -18.21875 L 16.3125 -18.21875 Z M 16.3125 0 "/></g></g></g></svg>